<?xml version="1.0" encoding="UTF-8"?>
<!DOCTYPE svg PUBLIC "-//W3C//DTD SVG 1.1//EN" "http://www.w3.org/Graphics/SVG/1.1/DTD/svg11.dtd">
<svg xmlns="http://www.w3.org/2000/svg" version="1.1" width="200px" height="200px" style="shape-rendering:geometricPrecision; text-rendering:geometricPrecision; image-rendering:optimizeQuality; fill-rule:evenodd; clip-rule:evenodd" xmlns:xlink="http://www.w3.org/1999/xlink">
<g><path style="opacity:1" fill="#fefefe" d="M -0.5,-0.5 C 66.1667,-0.5 132.833,-0.5 199.5,-0.5C 199.5,34.5 199.5,69.5 199.5,104.5C 192.227,92.8733 184.894,81.2067 177.5,69.5C 172.082,78.0013 166.915,86.668 162,95.5C 155.542,101.666 148.875,101.999 142,96.5C 136.546,82.2914 141.38,75.7914 156.5,77C 158.305,77.972 159.972,79.1387 161.5,80.5C 165.343,77.9864 165.343,75.4864 161.5,73C 151.534,68.2564 143.034,70.0897 136,78.5C 130.815,90.6081 133.982,99.7747 145.5,106C 154.257,107.858 161.424,105.358 167,98.5C 169.999,92.4984 173.499,86.8317 177.5,81.5C 182.987,89.1275 187.987,97.1275 192.5,105.5C 194.743,106.474 197.076,106.808 199.5,106.5C 199.5,137.5 199.5,168.5 199.5,199.5C 132.833,199.5 66.1667,199.5 -0.5,199.5C -0.5,132.833 -0.5,66.1667 -0.5,-0.5 Z"/></g>
<g><path style="opacity:1" fill="#0c0c0c" d="M 0.5,71.5 C 2.89531,70.1857 5.39531,70.1857 8,71.5C 12.2467,79.6619 16.7467,87.6619 21.5,95.5C 26.1667,87.5 30.8333,79.5 35.5,71.5C 44.1411,70.502 52.8078,70.1686 61.5,70.5C 61.5,72.5 61.5,74.5 61.5,76.5C 54.1591,76.3337 46.8258,76.5003 39.5,77C 33.626,87.249 27.626,97.4157 21.5,107.5C 14.4734,95.437 7.47339,83.437 0.5,71.5 Z"/></g>
<g><path style="opacity:1" fill="#0d0d0d" d="M 64.5,70.5 C 72.1739,70.3336 79.8406,70.5003 87.5,71C 96.4931,77.1214 96.8264,83.7881 88.5,91C 91.1593,95.9842 93.826,100.984 96.5,106C 94.5,106.667 92.5,106.667 90.5,106C 88.0862,101.171 85.4196,96.5038 82.5,92C 78.5138,91.5012 74.5138,91.3345 70.5,91.5C 70.5,96.5 70.5,101.5 70.5,106.5C 68.5,106.5 66.5,106.5 64.5,106.5C 64.5,94.5 64.5,82.5 64.5,70.5 Z"/></g>
<g><path style="opacity:1" fill="#070707" d="M 92.5,71.5 C 102.319,70.506 112.319,70.1726 122.5,70.5C 122.5,72.5 122.5,74.5 122.5,76.5C 118.5,76.5 114.5,76.5 110.5,76.5C 110.5,86.5 110.5,96.5 110.5,106.5C 108.5,106.5 106.5,106.5 104.5,106.5C 104.5,96.5 104.5,86.5 104.5,76.5C 101.813,76.6641 99.146,76.4974 96.5,76C 95.6719,74.0077 94.3386,72.5077 92.5,71.5 Z"/></g>
<g><path style="opacity:1" fill="#0c0c0c" d="M 125.5,70.5 C 127.5,70.5 129.5,70.5 131.5,70.5C 131.5,82.5 131.5,94.5 131.5,106.5C 129.5,106.5 127.5,106.5 125.5,106.5C 125.5,94.5 125.5,82.5 125.5,70.5 Z"/></g>
<g><path style="opacity:1" fill="#0d0d0d" d="M 199.5,104.5 C 199.5,105.167 199.5,105.833 199.5,106.5C 197.076,106.808 194.743,106.474 192.5,105.5C 187.987,97.1275 182.987,89.1275 177.5,81.5C 173.499,86.8317 169.999,92.4984 167,98.5C 161.424,105.358 154.257,107.858 145.5,106C 133.982,99.7747 130.815,90.6081 136,78.5C 143.034,70.0897 151.534,68.2564 161.5,73C 165.343,75.4864 165.343,77.9864 161.5,80.5C 159.972,79.1387 158.305,77.972 156.5,77C 141.38,75.7914 136.546,82.2914 142,96.5C 148.875,101.999 155.542,101.666 162,95.5C 166.915,86.668 172.082,78.0013 177.5,69.5C 184.894,81.2067 192.227,92.8733 199.5,104.5 Z"/></g>
<g><path style="opacity:1" fill="#eeeeee" d="M 70.5,76.5 C 75.8437,76.334 81.1771,76.5006 86.5,77C 89.2652,79.9663 88.9318,82.633 85.5,85C 80.5111,85.4993 75.5111,85.6659 70.5,85.5C 70.5,82.5 70.5,79.5 70.5,76.5 Z"/></g>
<g><path style="opacity:1" fill="#070707" d="M 36.5,85.5 C 44.8333,85.5 53.1667,85.5 61.5,85.5C 61.5,87.5 61.5,89.5 61.5,91.5C 55.1667,91.5 48.8333,91.5 42.5,91.5C 42.5,94.5 42.5,97.5 42.5,100.5C 48.8333,100.5 55.1667,100.5 61.5,100.5C 61.5,102.5 61.5,104.5 61.5,106.5C 53.1667,106.5 44.8333,106.5 36.5,106.5C 36.5,99.5 36.5,92.5 36.5,85.5 Z"/></g>
</svg>
